<svg xmlns="http://www.w3.org/2000/svg" viewBox="0 0 64 64" role="img" aria-label="Verve and Co. monogram">
  <rect width="64" height="64" rx="14" fill="#0A0A0A"/>
  <path d="M14 14h36v36H14z" fill="none" stroke="#F0E68C" stroke-width="2"/>
  <path d="M20 18h8l8 28 8-28h7L40 50h-8L20 18z" fill="#FFFFFF"/>
  <path d="M46 43c0 4-3 7-7 7-5 0-8-3-8-7 0-3 2-5 5-7-2-2-3-4-3-6 0-4 3-7 7-7 4 0 7 3 7 6 0 3-2 5-5 7l3 3 3-4h5l-5 7 5 6h-6l-2-2c-2 2-4 4-7 4-1 0-2 0-3-.3 2-.4 4-1.5 6-3.7l-6-7c3-2 5-4 5-6 0-1-.8-2-2-2s-2 .9-2 2c0 1 .6 2 2 3l9 10c.3-.8.5-1.7.5-2.7H46z" fill="#F0E68C"/>
</svg>
